Coordinates
version=1
nRows=7
nColumns=40
inDegrees=yes

Units are S.I. units (second, meters, Newtons, ...)
If the header above contains a line with 'inDegrees', this indicates whether rotational values are in degrees (yes) or radians (no).

endheader
time	pelvis_tilt	pelvis_list	pelvis_rotation	pelvis_tx	pelvis_ty	pelvis_tz	hip_flexion_r	hip_adduction_r	hip_rotation_r	knee_angle_r	knee_angle_r_beta	ankle_angle_r	subtalar_angle_r	mtp_angle_r	hip_flexion_l	hip_adduction_l	hip_rotation_l	knee_angle_l	knee_angle_l_beta	ankle_angle_l	subtalar_angle_l	mtp_angle_l	lumbar_extension	lumbar_bending	lumbar_rotation	arm_flex_r	arm_add_r	arm_rot_r	elbow_flex_r	pro_sup_r	wrist_flex_r	wrist_dev_r	arm_flex_l	arm_add_l	arm_rot_l	elbow_flex_l	pro_sup_l	wrist_flex_l	wrist_dev_l
      3.60000000	    -12.83906137	      0.21899314	    -11.09456503	     -0.27698532	      1.03478074	     -1.07425208	     -2.53859251	    -11.28407834	     -1.04919852	     47.92924633	      0.83652316	    -13.22136990	      0.00000000	      0.00000000	     20.18098694	      1.25756984	     -7.18190797	     17.46800694	      0.30487423	     -3.80017965	      0.00000000	      0.00000000	      1.57613228	     -3.69103829	     11.85522429	     89.95016504	    -11.46636265	     25.74007096	     39.20207373	     75.98547332	      0.00000000	      0.00000000	     89.90664732	    -26.48486400	     22.87244953	     39.86204554	     82.01119719	      0.00000000	      0.00000000
      3.60500000	    -12.94981820	      0.20496526	    -11.11470099	     -0.27752316	      1.03464140	     -1.07427010	     -2.41721686	    -11.20927351	     -1.01945207	     47.91661104	      0.83630263	    -13.24146531	      0.00000000	      0.00000000	     20.36339644	      1.19960843	     -7.24581263	     17.55282151	      0.30635453	     -3.74648945	      0.00000000	      0.00000000	      1.61385447	     -3.66432087	     11.81832971	     89.95042951	    -11.38933382	     25.25157636	     39.15241738	     78.84506314	      0.00000000	      0.00000000	     89.90698156	    -26.42009565	     22.33814298	     39.78888755	     84.94256676	      0.00000000	      0.00000000
      3.61000000	    -13.03598145	      0.21111563	    -11.11471338	     -0.27792345	      1.03452944	     -1.07435762	     -2.35135936	    -11.17413130	     -1.03408168	     47.87439767	      0.83556587	    -13.22464262	      0.00000000	      0.00000000	     20.50929327	      1.18508732	     -7.18168367	     17.61597405	      0.30745675	     -3.77334493	      0.00000000	      0.00000000	      1.64571039	     -3.66827817	     11.80074316	     89.95054926	    -11.40558502	     25.48990280	     39.20330739	     76.81067681	      0.00000000	      0.00000000	     89.90749441	    -26.34899311	     22.26985771	     39.79796522	     85.19605484	      0.00000000	      0.00000000
      3.61500000	    -13.10904006	      0.23379508	    -11.13488853	     -0.27828077	      1.03441411	     -1.07444444	     -2.27647568	    -11.16122745	     -1.03036040	     47.86427975	      0.83538928	    -13.21346547	      0.00000000	      0.00000000	     20.61011333	      1.18574906	     -7.22145041	     17.60596315	      0.30728202	     -3.80355281	      0.00000000	      0.00000000	      1.67463045	     -3.68947537	     11.76209932	     89.95070301	    -11.35235419	     25.18412482	     39.15692764	     78.66445121	      0.00000000	      0.00000000	     89.90776065	    -26.36139179	     22.31612477	     39.84672862	     84.96874291	      0.00000000	      0.00000000
      3.62000000	    -13.20008803	      0.26023399	    -11.16245207	     -0.27873500	      1.03424469	     -1.07453601	     -2.17062335	    -11.15800088	     -1.03280215	     47.86205316	      0.83535041	    -13.21835303	      0.00000000	      0.00000000	     20.76071142	      1.18339705	     -7.26799379	     17.64995012	      0.30804974	     -3.79175816	      0.00000000	      0.00000000	      1.71291470	     -3.71092836	     11.75897447	     89.95093455	    -11.35265052	     25.43566840	     39.24296319	     76.40542571	      0.00000000	      0.00000000	     89.90810714	    -26.25167591	     22.08716067	     39.79475436	     85.20974713	      0.00000000	      0.00000000
      3.62500000	    -13.26021568	      0.25947247	    -11.23528734	     -0.27910907	      1.03413697	     -1.07459106	     -2.10702171	    -11.10869101	     -0.91202156	     47.83639285	      0.83490256	    -13.19681849	      0.00000000	      0.00000000	     20.87339875	      1.13640187	     -7.50243632	     17.71730518	      0.30922531	     -3.78014044	      0.00000000	      0.00000000	      1.72637756	     -3.69847925	     11.78894030	     89.95113260	    -11.27758546	     25.39934542	     39.20525878	     75.28106600	      0.00000000	      0.00000000	     89.90870596	    -26.21369306	     22.11938716	     39.78736636	     85.01105555	      0.00000000	      0.00000000
      3.63000000	    -13.34937161	      0.25699513	    -11.20050276	     -0.27959369	      1.03398458	     -1.07480321	     -2.01980310	    -11.10541736	     -1.03635682	     47.82720693	      0.83474223	    -13.18037391	      0.00000000	      0.00000000	     20.99587067	      1.14122517	     -7.31101547	     17.69746370	      0.30887901	     -3.81756875	      0.00000000	      0.00000000	      1.74955798	     -3.68766616	     11.75961324	     89.95123087	    -11.37092211	     25.42913741	     39.31911570	     75.60240897	      0.00000000	      0.00000000	     89.90918213	    -26.13860669	     22.04533039	     39.81811330	     85.26024247	      0.00000000	      0.00000000
